<svg xmlns="http://www.w3.org/2000/svg" xmlns:xlink="http://www.w3.org/1999/xlink" width="300" zoomAndPan="magnify" viewBox="0 0 224.87999 225" height="300" preserveAspectRatio="xMidYMid meet" version="1.0"><defs><g/></defs><g fill="#000000" fill-opacity="1"><g transform="translate(5.910939, 120.903796)"><g><path d="M 17.296875 -6.296875 L 17.296875 -12.25 L 25.203125 -12.25 L 25.203125 -7.25 C 25.203125 -2.019531 22.742188 0.59375 17.828125 0.59375 L 10.34375 0.59375 C 5.425781 0.59375 2.96875 -2.019531 2.96875 -7.25 L 2.96875 -31.21875 C 2.96875 -36.445312 5.425781 -39.0625 10.34375 -39.0625 L 17.828125 -39.0625 C 22.742188 -39.0625 25.203125 -36.445312 25.203125 -31.21875 L 25.203125 -27.59375 L 17.296875 -27.59375 L 17.296875 -32.21875 C 17.296875 -32.539062 17.1875 -32.816406 16.96875 -33.046875 C 16.75 -33.285156 16.484375 -33.40625 16.171875 -33.40625 L 12.421875 -33.40625 C 12.109375 -33.40625 11.84375 -33.285156 11.625 -33.046875 C 11.40625 -32.816406 11.296875 -32.539062 11.296875 -32.21875 L 11.296875 -6.296875 C 11.296875 -5.984375 11.40625 -5.707031 11.625 -5.46875 C 11.84375 -5.226562 12.109375 -5.109375 12.421875 -5.109375 L 16.171875 -5.109375 C 16.484375 -5.109375 16.75 -5.226562 16.96875 -5.46875 C 17.1875 -5.707031 17.296875 -5.984375 17.296875 -6.296875 Z M 17.296875 -6.296875 "/></g></g></g><g fill="#000000" fill-opacity="1"><g transform="translate(33.142641, 120.903796)"><g><path d="M 11.296875 -15.09375 L 11.296875 0 L 2.96875 0 L 2.96875 -38.46875 L 11.296875 -38.46875 L 11.296875 -22.359375 L 17.890625 -22.359375 L 17.890625 -38.46875 L 26.21875 -38.46875 L 26.21875 0 L 17.890625 0 L 17.890625 -15.09375 Z M 11.296875 -15.09375 "/></g></g></g><g fill="#000000" fill-opacity="1"><g transform="translate(62.336455, 120.903796)"><g><path d="M 11.296875 -38.46875 L 11.296875 0 L 2.96875 0 L 2.96875 -38.46875 Z M 11.296875 -38.46875 "/></g></g></g><g fill="#000000" fill-opacity="1"><g transform="translate(76.844178, 120.903796)"><g><path d="M 0.765625 -31.390625 L 0.765625 -38.46875 L 21.578125 -38.46875 L 21.578125 -31.390625 L 15.34375 -31.390625 L 15.34375 0 L 7.015625 0 L 7.015625 -31.390625 Z M 0.765625 -31.390625 "/></g></g></g><g fill="#000000" fill-opacity="1"><g transform="translate(99.259796, 120.903796)"><g/></g></g><g fill="#000000" fill-opacity="1"><g transform="translate(111.270286, 120.903796)"><g><path d="M 17.296875 -6.296875 L 17.296875 -12.25 L 25.203125 -12.25 L 25.203125 -7.25 C 25.203125 -2.019531 22.742188 0.59375 17.828125 0.59375 L 10.34375 0.59375 C 5.425781 0.59375 2.96875 -2.019531 2.96875 -7.25 L 2.96875 -31.21875 C 2.96875 -36.445312 5.425781 -39.0625 10.34375 -39.0625 L 17.828125 -39.0625 C 22.742188 -39.0625 25.203125 -36.445312 25.203125 -31.21875 L 25.203125 -27.59375 L 17.296875 -27.59375 L 17.296875 -32.21875 C 17.296875 -32.539062 17.1875 -32.816406 16.96875 -33.046875 C 16.75 -33.285156 16.484375 -33.40625 16.171875 -33.40625 L 12.421875 -33.40625 C 12.109375 -33.40625 11.84375 -33.285156 11.625 -33.046875 C 11.40625 -32.816406 11.296875 -32.539062 11.296875 -32.21875 L 11.296875 -6.296875 C 11.296875 -5.984375 11.40625 -5.707031 11.625 -5.46875 C 11.84375 -5.226562 12.109375 -5.109375 12.421875 -5.109375 L 16.171875 -5.109375 C 16.484375 -5.109375 16.75 -5.226562 16.96875 -5.46875 C 17.1875 -5.707031 17.296875 -5.984375 17.296875 -6.296875 Z M 17.296875 -6.296875 "/></g></g></g><g fill="#000000" fill-opacity="1"><g transform="translate(138.501988, 120.903796)"><g><path d="M 11.296875 -15.09375 L 11.296875 0 L 2.96875 0 L 2.96875 -38.46875 L 11.296875 -38.46875 L 11.296875 -22.359375 L 17.890625 -22.359375 L 17.890625 -38.46875 L 26.21875 -38.46875 L 26.21875 0 L 17.890625 0 L 17.890625 -15.09375 Z M 11.296875 -15.09375 "/></g></g></g><g fill="#000000" fill-opacity="1"><g transform="translate(167.695802, 120.903796)"><g><path d="M 18.25 -39.0625 C 23.164062 -39.0625 25.625 -36.445312 25.625 -31.21875 L 25.625 0 L 17.296875 0 L 17.296875 -12.90625 L 11.296875 -12.90625 L 11.296875 0 L 2.96875 0 L 2.96875 -31.21875 C 2.96875 -36.445312 5.425781 -39.0625 10.34375 -39.0625 Z M 11.296875 -19.328125 L 17.296875 -19.328125 L 17.296875 -32.21875 C 17.296875 -32.539062 17.1875 -32.816406 16.96875 -33.046875 C 16.75 -33.285156 16.484375 -33.40625 16.171875 -33.40625 L 12.421875 -33.40625 C 12.109375 -33.40625 11.84375 -33.285156 11.625 -33.046875 C 11.40625 -32.816406 11.296875 -32.539062 11.296875 -32.21875 Z M 11.296875 -19.328125 "/></g></g></g><g fill="#000000" fill-opacity="1"><g transform="translate(196.532865, 120.903796)"><g><path d="M 0.765625 -31.390625 L 0.765625 -38.46875 L 21.578125 -38.46875 L 21.578125 -31.390625 L 15.34375 -31.390625 L 15.34375 0 L 7.015625 0 L 7.015625 -31.390625 Z M 0.765625 -31.390625 "/></g></g></g><g fill="#ff914d" fill-opacity="1"><g transform="translate(50.129839, 143.482508)"><g><path d="M 5.546875 -2.015625 L 5.546875 -3.921875 L 8.078125 -3.921875 L 8.078125 -2.328125 C 8.078125 -0.648438 7.289062 0.1875 5.71875 0.1875 L 3.3125 0.1875 C 1.738281 0.1875 0.953125 -0.648438 0.953125 -2.328125 L 0.953125 -10.015625 C 0.953125 -11.691406 1.738281 -12.53125 3.3125 -12.53125 L 5.71875 -12.53125 C 7.289062 -12.53125 8.078125 -11.691406 8.078125 -10.015625 L 8.078125 -8.84375 L 5.546875 -8.84375 L 5.546875 -10.328125 C 5.546875 -10.429688 5.507812 -10.519531 5.4375 -10.59375 C 5.375 -10.675781 5.289062 -10.71875 5.1875 -10.71875 L 3.984375 -10.71875 C 3.878906 -10.71875 3.789062 -10.675781 3.71875 -10.59375 C 3.65625 -10.519531 3.625 -10.429688 3.625 -10.328125 L 3.625 -2.015625 C 3.625 -1.921875 3.65625 -1.832031 3.71875 -1.75 C 3.789062 -1.675781 3.878906 -1.640625 3.984375 -1.640625 L 5.1875 -1.640625 C 5.289062 -1.640625 5.375 -1.675781 5.4375 -1.75 C 5.507812 -1.832031 5.546875 -1.921875 5.546875 -2.015625 Z M 5.546875 -2.015625 "/></g></g></g><g fill="#ff914d" fill-opacity="1"><g transform="translate(61.966427, 143.482508)"><g><path d="M 8.21875 -10.015625 L 8.21875 -2.328125 C 8.21875 -0.648438 7.429688 0.1875 5.859375 0.1875 L 3.3125 0.1875 C 1.738281 0.1875 0.953125 -0.648438 0.953125 -2.328125 L 0.953125 -10.015625 C 0.953125 -11.691406 1.738281 -12.53125 3.3125 -12.53125 L 5.859375 -12.53125 C 7.429688 -12.53125 8.21875 -11.691406 8.21875 -10.015625 Z M 5.546875 -2.015625 L 5.546875 -10.328125 C 5.546875 -10.429688 5.507812 -10.519531 5.4375 -10.59375 C 5.375 -10.675781 5.289062 -10.71875 5.1875 -10.71875 L 3.984375 -10.71875 C 3.878906 -10.71875 3.789062 -10.675781 3.71875 -10.59375 C 3.65625 -10.519531 3.625 -10.429688 3.625 -10.328125 L 3.625 -2.015625 C 3.625 -1.921875 3.65625 -1.832031 3.71875 -1.75 C 3.789062 -1.675781 3.878906 -1.640625 3.984375 -1.640625 L 5.1875 -1.640625 C 5.289062 -1.640625 5.375 -1.675781 5.4375 -1.75 C 5.507812 -1.832031 5.546875 -1.921875 5.546875 -2.015625 Z M 5.546875 -2.015625 "/></g></g></g><g fill="#ff914d" fill-opacity="1"><g transform="translate(74.298569, 143.482508)"><g><path d="M 8.03125 0 L 5.359375 0 L 5.359375 -10.234375 C 5.359375 -10.335938 5.320312 -10.425781 5.25 -10.5 C 5.175781 -10.582031 5.09375 -10.625 5 -10.625 L 3.96875 -10.625 C 3.863281 -10.625 3.773438 -10.582031 3.703125 -10.5 C 3.640625 -10.425781 3.609375 -10.335938 3.609375 -10.234375 L 3.609375 0 L 0.9375 0 L 0.9375 -10.015625 C 0.9375 -11.691406 1.722656 -12.53125 3.296875 -12.53125 L 5.65625 -12.53125 C 7.238281 -12.53125 8.03125 -11.691406 8.03125 -10.015625 Z M 8.03125 0 "/></g></g></g><g fill="#ff914d" fill-opacity="1"><g transform="translate(86.268573, 143.482508)"><g><path d="M 0.25 -10.0625 L 0.25 -12.328125 L 6.921875 -12.328125 L 6.921875 -10.0625 L 4.921875 -10.0625 L 4.921875 0 L 2.25 0 L 2.25 -10.0625 Z M 0.25 -10.0625 "/></g></g></g><g fill="#ff914d" fill-opacity="1"><g transform="translate(96.561337, 143.482508)"><g><path d="M 5.859375 -12.53125 C 7.429688 -12.53125 8.21875 -11.691406 8.21875 -10.015625 L 8.21875 0 L 5.546875 0 L 5.546875 -4.140625 L 3.625 -4.140625 L 3.625 0 L 0.953125 0 L 0.953125 -10.015625 C 0.953125 -11.691406 1.738281 -12.53125 3.3125 -12.53125 Z M 3.625 -6.203125 L 5.546875 -6.203125 L 5.546875 -10.328125 C 5.546875 -10.429688 5.507812 -10.519531 5.4375 -10.59375 C 5.375 -10.675781 5.289062 -10.71875 5.1875 -10.71875 L 3.984375 -10.71875 C 3.878906 -10.71875 3.789062 -10.675781 3.71875 -10.59375 C 3.65625 -10.519531 3.625 -10.429688 3.625 -10.328125 Z M 3.625 -6.203125 "/></g></g></g><g fill="#ff914d" fill-opacity="1"><g transform="translate(108.912541, 143.482508)"><g><path d="M 5.546875 -2.015625 L 5.546875 -3.921875 L 8.078125 -3.921875 L 8.078125 -2.328125 C 8.078125 -0.648438 7.289062 0.1875 5.71875 0.1875 L 3.3125 0.1875 C 1.738281 0.1875 0.953125 -0.648438 0.953125 -2.328125 L 0.953125 -10.015625 C 0.953125 -11.691406 1.738281 -12.53125 3.3125 -12.53125 L 5.71875 -12.53125 C 7.289062 -12.53125 8.078125 -11.691406 8.078125 -10.015625 L 8.078125 -8.84375 L 5.546875 -8.84375 L 5.546875 -10.328125 C 5.546875 -10.429688 5.507812 -10.519531 5.4375 -10.59375 C 5.375 -10.675781 5.289062 -10.71875 5.1875 -10.71875 L 3.984375 -10.71875 C 3.878906 -10.71875 3.789062 -10.675781 3.71875 -10.59375 C 3.65625 -10.519531 3.625 -10.429688 3.625 -10.328125 L 3.625 -2.015625 C 3.625 -1.921875 3.65625 -1.832031 3.71875 -1.75 C 3.789062 -1.675781 3.878906 -1.640625 3.984375 -1.640625 L 5.1875 -1.640625 C 5.289062 -1.640625 5.375 -1.675781 5.4375 -1.75 C 5.507812 -1.832031 5.546875 -1.921875 5.546875 -2.015625 Z M 5.546875 -2.015625 "/></g></g></g><g fill="#ff914d" fill-opacity="1"><g transform="translate(120.749132, 143.482508)"><g><path d="M 0.25 -10.0625 L 0.25 -12.328125 L 6.921875 -12.328125 L 6.921875 -10.0625 L 4.921875 -10.0625 L 4.921875 0 L 2.25 0 L 2.25 -10.0625 Z M 0.25 -10.0625 "/></g></g></g><g fill="#ff914d" fill-opacity="1"><g transform="translate(131.041897, 143.482508)"><g/></g></g><g fill="#ff914d" fill-opacity="1"><g transform="translate(137.999231, 143.482508)"><g><path d="M 3.625 -2.25 L 6.53125 -2.25 L 6.53125 0 L 0.953125 0 L 0.953125 -12.328125 L 3.625 -12.328125 Z M 3.625 -2.25 "/></g></g></g><g fill="#ff914d" fill-opacity="1"><g transform="translate(147.948927, 143.482508)"><g><path d="M 3.625 -12.328125 L 3.625 0 L 0.953125 0 L 0.953125 -12.328125 Z M 3.625 -12.328125 "/></g></g></g><g fill="#ff914d" fill-opacity="1"><g transform="translate(155.706767, 143.482508)"><g><path d="M 7.796875 -9.09375 L 5.265625 -9.09375 L 5.265625 -10.0625 C 5.265625 -10.164062 5.226562 -10.253906 5.15625 -10.328125 C 5.082031 -10.410156 5 -10.453125 4.90625 -10.453125 L 3.84375 -10.453125 C 3.75 -10.453125 3.664062 -10.410156 3.59375 -10.328125 C 3.519531 -10.253906 3.484375 -10.164062 3.484375 -10.0625 L 3.484375 -7.875 C 3.484375 -7.769531 3.519531 -7.675781 3.59375 -7.59375 C 3.664062 -7.519531 3.75 -7.484375 3.84375 -7.484375 L 5.5625 -7.484375 C 7.144531 -7.460938 7.9375 -6.625 7.9375 -4.96875 L 7.9375 -2.328125 C 7.9375 -0.648438 7.144531 0.1875 5.5625 0.1875 L 3.3125 0.1875 C 1.738281 0.1875 0.953125 -0.648438 0.953125 -2.328125 L 0.953125 -3.609375 L 3.484375 -3.609375 L 3.484375 -2.234375 C 3.484375 -2.128906 3.519531 -2.035156 3.59375 -1.953125 C 3.664062 -1.878906 3.75 -1.84375 3.84375 -1.84375 L 5.03125 -1.84375 C 5.132812 -1.84375 5.21875 -1.878906 5.28125 -1.953125 C 5.351562 -2.035156 5.390625 -2.128906 5.390625 -2.234375 L 5.390625 -4.65625 C 5.390625 -4.75 5.351562 -4.832031 5.28125 -4.90625 C 5.21875 -4.988281 5.132812 -5.03125 5.03125 -5.03125 L 3.3125 -5.03125 C 1.738281 -5.03125 0.953125 -5.867188 0.953125 -7.546875 L 0.953125 -10.015625 C 0.953125 -11.691406 1.738281 -12.53125 3.3125 -12.53125 L 5.4375 -12.53125 C 7.007812 -12.53125 7.796875 -11.691406 7.796875 -10.015625 Z M 7.796875 -9.09375 "/></g></g></g><g fill="#ff914d" fill-opacity="1"><g transform="translate(167.543358, 143.482508)"><g><path d="M 0.25 -10.0625 L 0.25 -12.328125 L 6.921875 -12.328125 L 6.921875 -10.0625 L 4.921875 -10.0625 L 4.921875 0 L 2.25 0 L 2.25 -10.0625 Z M 0.25 -10.0625 "/></g></g></g></svg>